<?xml version="1.0" encoding="UTF-8" standalone="no"?>
<!DOCTYPE svg PUBLIC "-//W3C//DTD SVG 1.1//EN" "http://www.w3.org/Graphics/SVG/1.1/DTD/svg11.dtd">
<svg width="100%" height="100%" viewBox="0 0 648 720" version="1.1" xmlns="http://www.w3.org/2000/svg" xmlns:xlink="http://www.w3.org/1999/xlink" xml:space="preserve" xmlns:serif="http://www.serif.com/" style="fill-rule:evenodd;clip-rule:evenodd;stroke-linecap:round;stroke-linejoin:round;stroke-miterlimit:1.5;">
    <g id="floor" transform="matrix(1.001546,0,0,1.002786,0,-3.008357)">
        <rect x="0" y="3" width="647" height="718" style="fill:rgb(221,255,252);"/>
    </g>
    <g id="sidewalk">
        <g id="sidewalk-1" serif:id="sidewalk 1" transform="matrix(0,-1,1,0,-41,978)">
            <g transform="matrix(1.273973,0,0,1.572985,18.863014,-264.542484)">
                <rect x="183" y="165" width="73" height="459" style="fill:rgb(229,229,229);stroke:black;stroke-width:2.91px;"/>
            </g>
            <g transform="matrix(0.916667,0,0,1.001623,23.916667,-49.137704)">
                <path d="M252,84.893L345,84.834" style="fill:none;stroke:rgb(114,114,114);stroke-width:8.68px;"/>
            </g>
            <g transform="matrix(0.916667,0,0,1.001623,23.916667,-5.066282)">
                <path d="M252,84.893L345,84.834" style="fill:none;stroke:rgb(114,114,114);stroke-width:8.68px;"/>
            </g>
            <g transform="matrix(0.916667,0,0,1.001623,23.916667,47.018126)">
                <path d="M252,84.893L345,84.834" style="fill:none;stroke:rgb(114,114,114);stroke-width:8.68px;"/>
            </g>
            <g transform="matrix(0.916667,0,0,1.001623,23,102.107403)">
                <path d="M252,84.893L345,84.834" style="fill:none;stroke:rgb(114,114,114);stroke-width:8.68px;"/>
            </g>
            <g transform="matrix(0.916667,0,0,1.001623,23,156.195057)">
                <path d="M252,84.893L345,84.834" style="fill:none;stroke:rgb(114,114,114);stroke-width:8.68px;"/>
            </g>
            <g transform="matrix(0.916667,0,0,1.001623,23,218.295696)">
                <path d="M252,84.893L345,84.834" style="fill:none;stroke:rgb(114,114,114);stroke-width:8.68px;"/>
            </g>
            <g transform="matrix(0.916667,0,0,1.001623,23.916667,273.384974)">
                <path d="M252,84.893L345,84.834" style="fill:none;stroke:rgb(114,114,114);stroke-width:8.68px;"/>
            </g>
            <g transform="matrix(0.916667,0,0,1.001623,25.75,329.475874)">
                <path d="M252,84.893L345,84.834" style="fill:none;stroke:rgb(114,114,114);stroke-width:8.68px;"/>
            </g>
            <g transform="matrix(0.916667,0,0,1.001623,23.916667,391.576514)">
                <path d="M252,84.893L345,84.834" style="fill:none;stroke:rgb(114,114,114);stroke-width:8.68px;"/>
            </g>
            <g transform="matrix(0.916667,0,0,1.001623,23.916667,451.673907)">
                <path d="M252,84.893L345,84.834" style="fill:none;stroke:rgb(114,114,114);stroke-width:8.68px;"/>
            </g>
            <g transform="matrix(0.916667,0,0,1.001623,23,509.768054)">
                <path d="M252,84.893L345,84.834" style="fill:none;stroke:rgb(114,114,114);stroke-width:8.68px;"/>
            </g>
            <g transform="matrix(0.916667,0,0,1.001623,23,567.862201)">
                <path d="M252,84.893L345,84.834" style="fill:none;stroke:rgb(114,114,114);stroke-width:8.68px;"/>
            </g>
        </g>
        <g id="sidewalk-11" serif:id="sidewalk 1" transform="matrix(0,1,-1,0,693,-254)">
            <g transform="matrix(1.273973,0,0,1.572985,18.863014,-264.542484)">
                <rect x="183" y="165" width="73" height="459" style="fill:rgb(229,229,229);stroke:black;stroke-width:2.91px;"/>
            </g>
            <g transform="matrix(0.916667,0,0,1.001623,23.916667,-5.066282)">
                <path d="M252,84.893L345,84.834" style="fill:none;stroke:rgb(114,114,114);stroke-width:8.68px;"/>
            </g>
            <g transform="matrix(0.916667,0,0,1.001623,23.916667,47.018126)">
                <path d="M252,84.893L345,84.834" style="fill:none;stroke:rgb(114,114,114);stroke-width:8.68px;"/>
            </g>
            <g transform="matrix(0.916667,0,0,1.001623,23,102.107403)">
                <path d="M252,84.893L345,84.834" style="fill:none;stroke:rgb(114,114,114);stroke-width:8.68px;"/>
            </g>
            <g transform="matrix(0.916667,0,0,1.001623,23,156.195057)">
                <path d="M252,84.893L345,84.834" style="fill:none;stroke:rgb(114,114,114);stroke-width:8.68px;"/>
            </g>
            <g transform="matrix(0.916667,0,0,1.001623,23,218.295696)">
                <path d="M252,84.893L345,84.834" style="fill:none;stroke:rgb(114,114,114);stroke-width:8.68px;"/>
            </g>
            <g transform="matrix(0.916667,0,0,1.001623,23.916667,273.384974)">
                <path d="M252,84.893L345,84.834" style="fill:none;stroke:rgb(114,114,114);stroke-width:8.68px;"/>
            </g>
            <g transform="matrix(0.916667,0,0,1.001623,25.75,329.475874)">
                <path d="M252,84.893L345,84.834" style="fill:none;stroke:rgb(114,114,114);stroke-width:8.68px;"/>
            </g>
            <g transform="matrix(0.916667,0,0,1.001623,23.916667,391.576514)">
                <path d="M252,84.893L345,84.834" style="fill:none;stroke:rgb(114,114,114);stroke-width:8.68px;"/>
            </g>
            <g transform="matrix(0.916667,0,0,1.001623,23.916667,451.673907)">
                <path d="M252,84.893L345,84.834" style="fill:none;stroke:rgb(114,114,114);stroke-width:8.68px;"/>
            </g>
            <g transform="matrix(0.916667,0,0,1.001623,23,509.768054)">
                <path d="M252,84.893L345,84.834" style="fill:none;stroke:rgb(114,114,114);stroke-width:8.68px;"/>
            </g>
            <g transform="matrix(0.916667,0,0,1.001623,23,567.862201)">
                <path d="M252,84.893L345,84.834" style="fill:none;stroke:rgb(114,114,114);stroke-width:8.68px;"/>
            </g>
        </g>
        <g id="sidewalk-12" serif:id="sidewalk 1" transform="matrix(1,0,0,1,-264,4)">
            <g transform="matrix(1.273973,0,0,1.572985,18.863014,-264.542484)">
                <rect x="183" y="165" width="73" height="459" style="fill:rgb(229,229,229);stroke:black;stroke-width:2.91px;"/>
            </g>
            <g transform="matrix(0.916667,0,0,1.001623,23.916667,-49.137704)">
                <path d="M252,84.893L345,84.834" style="fill:none;stroke:rgb(114,114,114);stroke-width:8.68px;"/>
            </g>
            <g transform="matrix(0.916667,0,0,1.001623,23.916667,-5.066282)">
                <path d="M252,84.893L345,84.834" style="fill:none;stroke:rgb(114,114,114);stroke-width:8.68px;"/>
            </g>
            <g transform="matrix(0.916667,0,0,1.001623,23.916667,47.018126)">
                <path d="M252,84.893L345,84.834" style="fill:none;stroke:rgb(114,114,114);stroke-width:8.68px;"/>
            </g>
            <g transform="matrix(0.916667,0,0,1.001623,23,102.107403)">
                <path d="M252,84.893L345,84.834" style="fill:none;stroke:rgb(114,114,114);stroke-width:8.68px;"/>
            </g>
            <g transform="matrix(0.916667,0,0,1.001623,23,156.195057)">
                <path d="M252,84.893L345,84.834" style="fill:none;stroke:rgb(114,114,114);stroke-width:8.68px;"/>
            </g>
            <g transform="matrix(0.916667,0,0,1.001623,23,218.295696)">
                <path d="M252,84.893L345,84.834" style="fill:none;stroke:rgb(114,114,114);stroke-width:8.68px;"/>
            </g>
            <g transform="matrix(0.916667,0,0,1.001623,23.916667,273.384974)">
                <path d="M252,84.893L345,84.834" style="fill:none;stroke:rgb(114,114,114);stroke-width:8.68px;"/>
            </g>
            <g transform="matrix(0.916667,0,0,1.001623,25.75,329.475874)">
                <path d="M252,84.893L345,84.834" style="fill:none;stroke:rgb(114,114,114);stroke-width:8.68px;"/>
            </g>
            <g transform="matrix(0.916667,0,0,1.001623,23.916667,391.576514)">
                <path d="M252,84.893L345,84.834" style="fill:none;stroke:rgb(114,114,114);stroke-width:8.68px;"/>
            </g>
            <g transform="matrix(0.916667,0,0,1.001623,23.916667,451.673907)">
                <path d="M252,84.893L345,84.834" style="fill:none;stroke:rgb(114,114,114);stroke-width:8.68px;"/>
            </g>
            <g transform="matrix(0.916667,0,0,1.001623,23,509.768054)">
                <path d="M252,84.893L345,84.834" style="fill:none;stroke:rgb(114,114,114);stroke-width:8.68px;"/>
            </g>
            <g transform="matrix(0.916667,0,0,1.001623,23,567.862201)">
                <path d="M252,84.893L345,84.834" style="fill:none;stroke:rgb(114,114,114);stroke-width:8.68px;"/>
            </g>
        </g>
        <g id="sidewalk-13" serif:id="sidewalk 1" transform="matrix(-1,-0,0,-1,901,717)">
            <g transform="matrix(1.273973,0,0,1.572985,18.863014,-264.542484)">
                <rect x="183" y="165" width="73" height="459" style="fill:rgb(229,229,229);stroke:black;stroke-width:2.91px;"/>
            </g>
            <g transform="matrix(0.916667,0,0,1.001623,23.916667,-49.137704)">
                <path d="M252,84.893L345,84.834" style="fill:none;stroke:rgb(114,114,114);stroke-width:8.68px;"/>
            </g>
            <g transform="matrix(0.916667,0,0,1.001623,23.916667,-5.066282)">
                <path d="M252,84.893L345,84.834" style="fill:none;stroke:rgb(114,114,114);stroke-width:8.68px;"/>
            </g>
            <g transform="matrix(0.916667,0,0,1.001623,23.916667,47.018126)">
                <path d="M252,84.893L345,84.834" style="fill:none;stroke:rgb(114,114,114);stroke-width:8.68px;"/>
            </g>
            <g transform="matrix(0.916667,0,0,1.001623,23,102.107403)">
                <path d="M252,84.893L345,84.834" style="fill:none;stroke:rgb(114,114,114);stroke-width:8.68px;"/>
            </g>
            <g transform="matrix(0.916667,0,0,1.001623,23,156.195057)">
                <path d="M252,84.893L345,84.834" style="fill:none;stroke:rgb(114,114,114);stroke-width:8.68px;"/>
            </g>
            <g transform="matrix(0.916667,0,0,1.001623,23,218.295696)">
                <path d="M252,84.893L345,84.834" style="fill:none;stroke:rgb(114,114,114);stroke-width:8.68px;"/>
            </g>
            <g transform="matrix(0.916667,0,0,1.001623,23.916667,273.384974)">
                <path d="M252,84.893L345,84.834" style="fill:none;stroke:rgb(114,114,114);stroke-width:8.68px;"/>
            </g>
            <g transform="matrix(0.916667,0,0,1.001623,25.75,329.475874)">
                <path d="M252,84.893L345,84.834" style="fill:none;stroke:rgb(114,114,114);stroke-width:8.68px;"/>
            </g>
            <g transform="matrix(0.916667,0,0,1.001623,23.916667,391.576514)">
                <path d="M252,84.893L345,84.834" style="fill:none;stroke:rgb(114,114,114);stroke-width:8.68px;"/>
            </g>
            <g transform="matrix(0.916667,0,0,1.001623,23.916667,451.673907)">
                <path d="M252,84.893L345,84.834" style="fill:none;stroke:rgb(114,114,114);stroke-width:8.68px;"/>
            </g>
            <g transform="matrix(0.916667,0,0,1.001623,23,509.768054)">
                <path d="M252,84.893L345,84.834" style="fill:none;stroke:rgb(114,114,114);stroke-width:8.68px;"/>
            </g>
            <g transform="matrix(0.916667,0,0,1.001623,23,567.862201)">
                <path d="M252,84.893L345,84.834" style="fill:none;stroke:rgb(114,114,114);stroke-width:8.68px;"/>
            </g>
        </g>
    </g>
    <path id="snow" d="M662.583,676.346C680.787,684.277 693,698.85 693,715.5C693,740.612 665.219,761 631,761C619.292,761 608.337,758.613 598.992,754.467C590.83,757.371 581.672,759 572,759C557.094,759 543.41,755.131 532.712,748.689C522.613,753.924 510.292,757 497,757C485.292,757 474.337,754.613 464.992,750.467C456.83,753.371 447.672,755 438,755C428.013,755 418.574,753.263 410.215,750.179C398.943,761.58 380.643,769 360,769C348.292,769 337.337,766.613 327.992,762.467C319.83,765.371 310.672,767 301,767C281.225,767 263.6,760.191 252.244,749.596C240.928,758.459 224.839,764 207,764C195.292,764 184.337,761.613 174.992,757.467C166.83,760.371 157.672,762 148,762C131.83,762 117.097,757.447 106.055,749.995C94.702,749.87 84.085,747.501 74.992,743.467C66.83,746.371 57.672,748 48,748C13.781,748 -14,727.612 -14,702.5C-14,698.862 -13.417,695.323 -12.316,691.93C-20.17,680.786 -25,665.656 -25,649C-25,637.292 -22.613,626.337 -18.467,616.992C-21.371,608.83 -23,599.672 -23,590C-23,575.094 -19.131,561.41 -12.689,550.712C-17.924,540.613 -21,528.292 -21,515C-21,503.292 -18.613,492.337 -14.467,482.992C-17.371,474.83 -19,465.672 -19,456C-19,446.013 -17.263,436.574 -14.179,428.215C-25.58,416.943 -33,398.643 -33,378C-33,366.292 -30.613,355.337 -26.467,345.992C-29.371,337.83 -31,328.672 -31,319C-31,299.225 -24.191,281.6 -13.596,270.244C-22.459,258.928 -28,242.839 -28,225C-28,213.292 -25.613,202.337 -21.467,192.992C-24.371,184.83 -26,175.672 -26,166C-26,149.83 -21.447,135.097 -13.995,124.055C-13.87,112.702 -11.501,102.085 -7.467,92.992C-10.371,84.83 -12,75.672 -12,66C-12,57.986 -10.882,50.326 -8.847,43.292C-18.285,35.308 -24,24.89 -24,13.5C-24,-11.612 3.781,-32 38,-32C49.708,-32 60.663,-29.613 70.008,-25.467C78.17,-28.371 87.328,-30 97,-30C111.906,-30 125.59,-26.131 136.288,-19.689C146.387,-24.924 158.708,-28 172,-28C183.708,-28 194.663,-25.613 204.008,-21.467C212.17,-24.371 221.328,-26 231,-26C240.987,-26 250.426,-24.263 258.785,-21.179C270.057,-32.58 288.357,-40 309,-40C320.708,-40 331.663,-37.613 341.008,-33.467C349.17,-36.371 358.328,-38 368,-38C387.775,-38 405.4,-31.191 416.756,-20.596C428.072,-29.459 444.161,-35 462,-35C473.708,-35 484.663,-32.613 494.008,-28.467C502.17,-31.371 511.328,-33 521,-33C537.17,-33 551.903,-28.447 562.945,-20.995C574.298,-20.87 584.915,-18.501 594.008,-14.467C602.17,-17.371 611.328,-19 621,-19C655.219,-19 683,1.388 683,26.5C683,32.542 681.392,38.311 678.472,43.588C680.11,49.981 681,56.85 681,64C681,75.708 678.613,86.663 674.467,96.008C677.371,104.17 679,113.328 679,123C679,137.906 675.131,151.59 668.689,162.288C673.924,172.387 677,184.708 677,198C677,209.708 674.613,220.663 670.467,230.008C673.371,238.17 675,247.328 675,257C675,266.987 673.263,276.426 670.179,284.785C681.58,296.057 689,314.357 689,335C689,346.708 686.613,357.663 682.467,367.008C685.371,375.17 687,384.328 687,394C687,413.775 680.191,431.4 669.596,442.756C678.459,454.072 684,470.161 684,488C684,499.708 681.613,510.663 677.467,520.008C680.371,528.17 682,537.328 682,547C682,563.17 677.447,577.903 669.995,588.945C669.87,600.298 667.501,610.915 663.467,620.008C666.371,628.17 668,637.328 668,647C668,657.614 666.039,667.608 662.583,676.346ZM590.021,65.914C589.676,65.767 589.333,65.618 588.992,65.467C580.83,68.371 571.672,70 562,70C545.83,70 531.097,65.447 520.055,57.995C508.702,57.87 498.085,55.501 488.992,51.467C480.83,54.371 471.672,56 462,56C442.225,56 424.6,49.191 413.244,38.596C401.928,47.459 385.839,53 368,53C356.292,53 345.337,50.613 335.992,46.467C327.83,49.371 318.672,51 309,51C299.013,51 289.574,49.263 281.215,46.179C269.943,57.58 251.643,65 231,65C219.292,65 208.337,62.613 198.992,58.467C190.83,61.371 181.672,63 172,63C157.094,63 143.41,59.131 132.712,52.689C122.613,57.924 110.292,61 97,61C90.635,61 84.493,60.295 78.711,58.985C78.902,61.288 79,63.628 79,66C79,77.708 76.613,88.663 72.467,98.008C75.371,106.17 77,115.328 77,125C77,141.17 72.447,155.903 64.995,166.945C64.87,178.298 62.501,188.915 58.467,198.008C61.371,206.17 63,215.328 63,225C63,244.775 56.191,262.4 45.596,273.756C54.459,285.072 60,301.161 60,319C60,330.708 57.613,341.663 53.467,351.008C56.371,359.17 58,368.328 58,378C58,387.987 56.263,397.426 53.179,405.785C64.58,417.057 72,435.357 72,456C72,467.708 69.613,478.663 65.467,488.008C68.371,496.17 70,505.328 70,515C70,529.906 66.131,543.59 59.689,554.288C64.924,564.387 68,576.708 68,590C68,601.708 65.613,612.663 61.467,622.008C64.371,630.17 66,639.328 66,649C66,652.343 65.805,655.625 65.431,658.826C70.601,659.937 75.493,661.53 80.008,663.533C88.17,660.629 97.328,659 107,659C123.17,659 137.903,663.553 148.945,671.005C160.298,671.13 170.915,673.499 180.008,677.533C188.17,674.629 197.328,673 207,673C226.775,673 244.4,679.809 255.756,690.404C267.072,681.541 283.161,676 301,676C312.708,676 323.663,678.387 333.008,682.533C341.17,679.629 350.328,678 360,678C369.987,678 379.426,679.737 387.785,682.821C399.057,671.42 417.357,664 438,664C449.708,664 460.663,666.387 470.008,670.533C478.17,667.629 487.328,666 497,666C511.906,666 525.59,669.869 536.288,676.311C546.387,671.076 558.708,668 572,668C574.633,668 577.228,668.121 579.775,668.355C577.98,661.696 577,654.503 577,647C577,635.292 579.387,624.337 583.533,614.992C580.629,606.83 579,597.672 579,588C579,571.83 583.553,557.097 591.005,546.055C591.13,534.702 593.499,524.085 597.533,514.992C594.629,506.83 593,497.672 593,488C593,468.225 599.809,450.6 610.404,439.244C601.541,427.928 596,411.839 596,394C596,382.292 598.387,371.337 602.533,361.992C599.629,353.83 598,344.672 598,335C598,325.013 599.737,315.574 602.821,307.215C591.42,295.943 584,277.643 584,257C584,245.292 586.387,234.337 590.533,224.992C587.629,216.83 586,207.672 586,198C586,183.094 589.869,169.41 596.311,158.712C591.076,148.613 588,136.292 588,123C588,111.292 590.387,100.337 594.533,90.992C591.821,83.37 590.221,74.88 590.021,65.914Z" style="fill:white;stroke:black;stroke-width:3.33px;"/>
</svg>
