<?xml version="1.0" encoding="UTF-8" standalone="no"?><!DOCTYPE svg PUBLIC "-//W3C//DTD SVG 1.1//EN" "http://www.w3.org/Graphics/SVG/1.1/DTD/svg11.dtd"><svg width="100%" height="100%" viewBox="0 0 266 118" version="1.1" xmlns="http://www.w3.org/2000/svg" xmlns:xlink="http://www.w3.org/1999/xlink" xml:space="preserve" xmlns:serif="http://www.serif.com/" style="fill-rule:evenodd;clip-rule:evenodd;stroke-linecap:round;stroke-linejoin:round;stroke-miterlimit:1.5;"><g id="car"><path d="M106.03,105.349l0,6.471c0,1.786 -1.45,3.235 -3.235,3.235l-40.397,0c-1.786,0 -3.235,-1.45 -3.235,-3.235l0,-6.471c0,-1.786 1.45,-3.235 3.235,-3.235l40.397,0c1.786,0 3.235,1.45 3.235,3.235Z" style="fill:#2e2e2e;stroke:#000;stroke-width:4.17px;"/><path d="M207.109,106.049l0,6.471c0,1.786 -1.45,3.235 -3.235,3.235l-40.397,0c-1.786,0 -3.235,-1.45 -3.235,-3.235l0,-6.471c0,-1.786 1.45,-3.235 3.235,-3.235l40.397,0c1.786,0 3.235,1.45 3.235,3.235Z" style="fill:#2e2e2e;stroke:#000;stroke-width:4.17px;"/><path d="M106.03,5.319l0,6.471c0,1.786 -1.45,3.235 -3.235,3.235l-40.397,0c-1.786,0 -3.235,-1.45 -3.235,-3.235l0,-6.471c0,-1.786 1.45,-3.235 3.235,-3.235l40.397,0c1.786,0 3.235,1.45 3.235,3.235Z" style="fill:#2e2e2e;stroke:#000;stroke-width:4.17px;"/><path d="M207.109,6.018l0,6.471c0,1.786 -1.45,3.235 -3.235,3.235l-40.397,0c-1.786,0 -3.235,-1.45 -3.235,-3.235l0,-6.471c0,-1.786 1.45,-3.235 3.235,-3.235l40.397,0c1.786,0 3.235,1.45 3.235,3.235Z" style="fill:#2e2e2e;stroke:#000;stroke-width:4.17px;"/><rect x="57.064" y="5.231" width="151.795" height="105.627" style="fill:#fff;stroke:#000;stroke-width:4.17px;"/><path d="M56.645,5.274l0,105.277c0,0 -24.344,-5.136 -27.287,-5.757c-15.761,-3.325 -26.84,-17.514 -26.244,-33.611c0.34,-9.184 0.718,-19.408 1.06,-28.643c0.615,-16.63 12.818,-30.545 29.226,-33.325c11.983,-2.031 23.245,-3.94 23.245,-3.94Z" style="fill:#00adff;stroke:#000;stroke-width:4.17px;"/><path d="M208.44,110.201l0,-105.277c0,0 24.253,5.052 26.709,5.564c16.551,3.448 28.292,18.204 27.934,35.107c-0.181,8.528 -0.378,17.844 -0.559,26.353c-0.356,16.762 -12.51,30.935 -29.022,33.842c-12.788,2.251 -25.063,4.412 -25.063,4.412Z" style="fill:#00adff;stroke:#000;stroke-width:4.17px;"/><g transform="matrix(0,-1,1,0,-357.444929,60.545058)"><g transform="matrix(25.486065,0,0,25.486065,42.684188,599.407849)"></g><text x="-40.885px" y="599.408px" style="font-family:'Copperplate';font-size:25.486px;fill:#fff;">Police</text></g><path d="M7.108,55.166l17.463,-4.016l1.558,-17.803l9.235,15.321l17.463,-4.016l-11.755,13.485l9.235,15.321l-16.5,-6.987l-11.755,13.485l1.558,-17.803l-16.5,-6.987Z" style="fill:#fff200;"/><g id="lights"><rect x="120.02" y="40.207" width="17.488" height="30.779" style="fill:#252525;stroke:#000;stroke-width:4.17px;"/><path d="M137.858,39.857l-18.537,0l4.634,-13.99l9.269,0l4.634,13.99Z" style="fill:#00b4ff;stroke:#000;stroke-width:4.17px;"/><path d="M137.858,71.685l-18.537,0l4.634,13.99l9.269,0l4.634,-13.99Z" style="fill:#ff2b00;stroke:#000;stroke-width:4.17px;"/></g></g></svg>