<?xml version="1.0" encoding="UTF-8" standalone="no"?><!DOCTYPE svg PUBLIC "-//W3C//DTD SVG 1.1//EN" "http://www.w3.org/Graphics/SVG/1.1/DTD/svg11.dtd"><svg width="100%" height="100%" viewBox="0 0 89 92" version="1.1" xmlns="http://www.w3.org/2000/svg" xmlns:xlink="http://www.w3.org/1999/xlink" xml:space="preserve" xmlns:serif="http://www.serif.com/" style="fill-rule:evenodd;clip-rule:evenodd;stroke-linecap:round;stroke-linejoin:round;stroke-miterlimit:1.5;"><g id="Dash-Hanbox" serif:id="Dash Hanbox"><ellipse cx="5.204" cy="63.072" rx="4.579" ry="5.342" style="fill:#ce7e00;stroke:#000;stroke-width:1.25px;"/><ellipse cx="5.204" cy="63.072" rx="1.526" ry="2.289"/><rect x="17.414" y="62.309" width="68.684" height="29" style="fill:#372b24;stroke:#000;stroke-width:1.25px;"/><rect x="5.204" y="62.309" width="12.211" height="29" style="fill:#2c2521;stroke:#000;stroke-width:1.25px;"/><rect x="5.204" y="51.625" width="12.211" height="10.684" style="fill:#2c2521;stroke:#000;stroke-width:1.25px;"/><rect x="17.414" y="51.625" width="70.211" height="10.684" style="fill:#372b24;stroke:#000;stroke-width:1.25px;"/><path d="M60.151,59.257l0,13.737l-9.158,0l0,-13.737l9.158,0Zm-2.617,2.747l-3.925,0l0,8.242l3.925,0l0,-8.242Z" style="fill:#ce7e00;stroke:#000;stroke-width:1.25px;"/></g><g id="Hanbox"><ellipse cx="5.204" cy="12.072" rx="4.579" ry="5.342" style="fill:#ffe100;stroke:#000;stroke-width:1.25px;"/><ellipse cx="5.204" cy="12.072" rx="1.526" ry="2.289"/><rect x="17.414" y="11.309" width="68.684" height="29" style="fill:#db4f00;stroke:#000;stroke-width:1.25px;"/><rect x="5.204" y="11.309" width="12.211" height="29" style="fill:#7b2c00;stroke:#000;stroke-width:1.25px;"/><rect x="5.204" y="0.625" width="12.211" height="10.684" style="fill:#7b2c00;stroke:#000;stroke-width:1.25px;"/><rect x="17.414" y="0.625" width="70.211" height="10.684" style="fill:#db4f00;stroke:#000;stroke-width:1.25px;"/><path d="M60.151,8.257l0,13.737l-9.158,0l0,-13.737l9.158,0Zm-2.617,2.747l-3.925,0l0,8.242l3.925,0l0,-8.242Z" style="fill:#ffe100;stroke:#000;stroke-width:1.25px;"/></g></svg>