<?xml version="1.0" encoding="UTF-8" standalone="no"?><!DOCTYPE svg PUBLIC "-//W3C//DTD SVG 1.1//EN" "http://www.w3.org/Graphics/SVG/1.1/DTD/svg11.dtd"><svg width="100%" height="100%" viewBox="0 0 891 97" version="1.1" xmlns="http://www.w3.org/2000/svg" xmlns:xlink="http://www.w3.org/1999/xlink" xml:space="preserve" xmlns:serif="http://www.serif.com/" style="fill-rule:evenodd;clip-rule:evenodd;stroke-linecap:round;stroke-linejoin:round;stroke-miterlimit:1.5;"><g id="lazar"><path id="lazer" d="M36.925,71.899l50.586,9.015l79.948,-24.298l52.008,25.408l73.127,-28.764l102.126,38.581l39.305,-29.043l41.148,29.499l74.051,-38.406l36.148,27.873l63.749,-41.305l56.719,29.386l74.704,-24.094l32.968,25.152l5.092,-34.675l-36.27,-15.426l-76.255,24.803l-53.617,-22.804l-58.825,23.664l-47.38,-12.914l-68.37,28.156l-38.841,-26.377l-56.729,29.527l-97.44,-31.983l-60.408,23.648l-50.502,-17.531l-70.364,15.875l-31.623,-4.897l-35.054,21.932Z" style="fill:#ffa547;stroke:#ffef47;stroke-width:8.33px;"/><g id="E.B-1" serif:id="E.B 1"><path d="M4.167,47.667c0,-22.904 18.371,-41.5 41,-41.5c22.629,0 41,18.596 41,41.5c0,22.904 -18.371,41.5 -41,41.5c-22.629,0 -41,-18.596 -41,-41.5Z" style="fill:#535353;stroke:#000;stroke-width:8.33px;"/><path d="M22.167,56.167c0,-6.623 9.41,-12 21,-12c11.59,0 21,5.377 21,12c0,6.623 -9.41,12 -21,12c-11.59,0 -21,-5.377 -21,-12Z" style="fill:#ffe347;stroke:#000;stroke-width:8.33px;"/><path d="M25.167,38.167c0,-6.623 9.41,-12 21,-12c11.59,0 21,5.377 21,12c0,6.623 -9.41,12 -21,12c-11.59,0 -21,-5.377 -21,-12Z" style="fill:#ffe347;stroke:#000;stroke-width:8.33px;"/><path d="M22.167,76.167c0,-6.623 9.41,-12 21,-12c11.59,0 21,5.377 21,12c0,6.623 -9.41,12 -21,12c-11.59,0 -21,-5.377 -21,-12Z" style="fill:#ffe347;stroke:#000;stroke-width:8.33px;"/><path d="M25.167,18.167c0,-6.623 9.41,-12 21,-12c11.59,0 21,5.377 21,12c0,6.623 -9.41,12 -21,12c-11.59,0 -21,-5.377 -21,-12Z" style="fill:#ffe347;stroke:#000;stroke-width:8.33px;"/></g><g id="E.B-2" serif:id="E.B 2"><path d="M804.167,45.667c0,-22.904 18.371,-41.5 41,-41.5c22.629,0 41,18.596 41,41.5c0,22.904 -18.371,41.5 -41,41.5c-22.629,0 -41,-18.596 -41,-41.5Z" style="fill:#535353;stroke:#000;stroke-width:8.33px;"/><path d="M822.167,54.167c0,-6.623 9.41,-12 21,-12c11.59,0 21,5.377 21,12c0,6.623 -9.41,12 -21,12c-11.59,0 -21,-5.377 -21,-12Z" style="fill:#ffe347;stroke:#000;stroke-width:8.33px;"/><path d="M825.167,36.167c0,-6.623 9.41,-12 21,-12c11.59,0 21,5.377 21,12c0,6.623 -9.41,12 -21,12c-11.59,0 -21,-5.377 -21,-12Z" style="fill:#ffe347;stroke:#000;stroke-width:8.33px;"/><path d="M822.167,74.167c0,-6.623 9.41,-12 21,-12c11.59,0 21,5.377 21,12c0,6.623 -9.41,12 -21,12c-11.59,0 -21,-5.377 -21,-12Z" style="fill:#ffe347;stroke:#000;stroke-width:8.33px;"/><path d="M825.167,16.167c0,-6.623 9.41,-12 21,-12c11.59,0 21,5.377 21,12c0,6.623 -9.41,12 -21,12c-11.59,0 -21,-5.377 -21,-12Z" style="fill:#ffe347;stroke:#000;stroke-width:8.33px;"/></g></g></svg>