<?xml version="1.0" encoding="UTF-8" standalone="no"?>
<!DOCTYPE svg PUBLIC "-//W3C//DTD SVG 1.1//EN" "http://www.w3.org/Graphics/SVG/1.1/DTD/svg11.dtd">
<svg width="100%" height="100%" viewBox="0 0 122 54" version="1.1" xmlns="http://www.w3.org/2000/svg" xmlns:xlink="http://www.w3.org/1999/xlink" xml:space="preserve" xmlns:serif="http://www.serif.com/" style="fill-rule:evenodd;clip-rule:evenodd;stroke-linecap:round;stroke-linejoin:round;stroke-miterlimit:1.5;">
    <g transform="matrix(1,0,0,1,-305.916667,-299.916667)">
        <g id="Money">
            <g transform="matrix(0.629032,0,0,0.604938,114.258065,119.308642)">
                <rect x="308" y="302" width="186" height="81" style="fill:rgb(0,202,10);stroke:black;stroke-width:6.75px;"/>
            </g>
            <path d="M425.072,346.47L425.072,350.927L414,350.927L414,351L320,351L320,350.927L308.072,350.927L308.072,335.927L308.171,335.925L308.171,317.003L308,316.999L308,302L425,302L425,308.47L425.171,308.47L425.171,346.47L425.072,346.47ZM416.171,315.653C413.863,314.688 412.012,313.174 410.646,311L322.354,311C321.056,313.066 319.32,314.536 317.171,315.504L317.171,337.39C319.378,338.369 321.155,339.872 322.472,342L410.673,342C412.028,339.809 413.871,338.281 416.171,337.304L416.171,315.653Z" style="fill:rgb(72,255,0);stroke:black;stroke-width:4.17px;"/>
        </g>
    </g>
</svg>
